<svg xmlns="http://www.w3.org/2000/svg" viewBox="-50 -14 206 207">
    <style>
        .letter{fill:url(#blueGradient);filter:url(#shadow)} .plate{fill:url(#whiteGradient);filter:url(#dropshadow)} .glow{fill:rgb(245,255,0)}
    </style>
    <circle cx='53' cy='90' r='102' stroke='black' stroke-width="2"/>
    <circle cx='53' cy='90' r='100' fill='rgba(200,200,200,0)' stroke='white' stroke-width="1.5"/>
    <g class='letter'>
        <polygon id="sig" points="
        60,60
        100,60 
        100,76 
        99,74
        97,73 
        95,71 
        94,70.5
        91,70
        70,70 
        100,105 
        70,140 
        91,140
        94,139.5
        95,139
        97,137.5
        99,135.5
        100,133
        100,150 
        60,150 
        60,140 
        90,105 
        60,70"/>
        <polygon id="f" points="
        10,10
        100,10
        100,39
        99,37
        98.5,36
        96,33
        94,32
        92,31
        87,30
        30,30
        30,60
        60,60
        60,70
        30,70
        30,154
        30.5,160
        31,161
        32,163.5
        36,167.5
        39,169.5
        40,170
        30,170
        10,170"/>
    </g>
    <g class="plate">
        <polygon  filter="url(#f1)" points="
            40,90
            65,90
            77,105
            65,120
            40,120"/>
    </g>
    <defs>
    <filter id="f1" x="0" y="0">
      <feGaussianBlur stdDeviation=".7" />
    </filter>
        <filter id="shadow">
      <feDropShadow  dx="0" dy="0" stdDeviation="4" flood-color="rgb(245,255,0)" flood-opacity="1" />
    </filter>
            <linearGradient id="blueGradient">
            <stop offset="5%"  stop-color="rgb(0,110,205)"/>
            <stop offset="95%" stop-color="rgb(0,50,100)"/>
        </linearGradient>
                    <linearGradient id="whiteGradient">
            <stop stop-color="rgba(255,255,255,1)"/>
            <stop offset="100%" stop-color="rgba(0,110,230,1)"/>
        </linearGradient>
  </defs>

    <filter id="dropshadow" width="150%" height="130%">
        <feGaussianBlur in="SourceAlpha" stdDeviation="2" />
        <!--stdDeviation is how much to blur-->
        <feOffset dx="1" dy="1" result="offsetblur"/>
        <!--how much to offset-->
        <feComponentTransfer>
            <feFuncA slope="0.8" type="linear"/>
        <!--slope is the opacity of the shadow-->
        </feComponentTransfer>
        <feMerge>
            <feMergeNode/>
        <!--this contains the offset blurred image-->
            <feMergeNode in="SourceGraphic" />
        <!--this contains the element that the filter is applied to-->
        </feMerge>
    </filter>
    
</svg>
